<?xml version="1.0" encoding="UTF-8"?>
<svg id="Layer_1" data-name="Layer 1" xmlns="http://www.w3.org/2000/svg" viewBox="0 0 1206.02 573.38">
  <defs>
    <style>
      .cls-1 {
        fill: #b8ff52;
      }
    </style>
  </defs>
  <path class="cls-1" d="M518.19,296.81c-1.19-4.21-2.92-7.74-5.17-10.57-2.25-2.83-4.92-4.95-8-6.34-3.09-1.39-6.35-2.18-9.79-2.38-8.37-.49-14.82,1.98-19.33,7.42-4.52,5.43-7.08,13.43-7.7,23.98-.62,10.67.99,18.96,4.85,24.88,3.85,5.92,9.97,9.13,18.34,9.61,3.44.2,6.77-.21,10-1.23,3.22-1.02,6.12-2.81,8.69-5.36,2.56-2.55,4.69-5.88,6.36-9.99,1.68-4.1,2.69-9.08,3.03-14.93.34-5.85-.09-10.88-1.28-15.09Z"/>
  <path class="cls-1" d="M285.82,307.69c-4.1,1.2-7.3,2.85-9.61,4.96-2.31,2.11-3.56,4.77-3.75,7.98-.25,4.36,1.12,7.98,4.11,10.86,3,2.88,7.3,4.48,12.92,4.81,3.67.21,7.25-.06,10.75-.84,3.5-.77,6.63-2.26,9.41-4.46,2.77-2.19,5.08-5.25,6.92-9.18,1.84-3.92,2.94-8.98,3.3-15.17l.18-3.1c-7.15.27-13.62.73-19.41,1.37-5.79.64-10.74,1.56-14.83,2.76Z"/>
  <path class="cls-1" d="M617.93,292.88c-2.04-2.59-4.62-4.73-7.74-6.41-3.13-1.68-6.81-2.64-11.05-2.89-7.91-.46-14.47,1.43-19.66,5.67-5.2,4.25-8.21,10.54-9.04,18.89l53.33,3.11c.07-3.22-.38-6.44-1.34-9.66-.96-3.22-2.46-6.13-4.5-8.72Z"/>
  <path class="cls-1" d="M565.1,436.78c-1.64-2.93-3.74-5.44-6.29-7.53-2.55-2.08-5.54-3.61-8.95-4.56-3.42-.95-7.22-1.09-11.42-.41-7.82,1.28-13.81,4.55-17.95,9.83-4.15,5.28-5.71,12.08-4.7,20.41l52.72-8.6c-.63-3.15-1.77-6.2-3.41-9.13Z"/>
  <path class="cls-1" d="M1151.07,87.61c-1.27-3.11-3.05-5.86-5.32-8.24-2.28-2.38-5.06-4.26-8.33-5.62-3.27-1.36-7.04-1.97-11.28-1.8-7.92.31-14.26,2.83-19.02,7.56-4.76,4.73-7.15,11.29-7.16,19.68l53.38-2.09c-.24-3.21-1-6.37-2.27-9.48Z"/>
  <path class="cls-1" d="M656.72,106.95c-1.27-3.11-3.05-5.86-5.32-8.24-2.28-2.38-5.05-4.26-8.33-5.62-3.27-1.36-7.03-1.97-11.28-1.8-7.92.31-14.26,2.83-19.02,7.56-4.76,4.73-7.15,11.29-7.16,19.68l53.38-2.09c-.24-3.21-1-6.37-2.27-9.48Z"/>
  <path class="cls-1" d="M857.49,99.1c-1.27-3.11-3.05-5.86-5.32-8.24-2.28-2.38-5.05-4.26-8.33-5.62-3.27-1.36-7.04-1.97-11.28-1.8-7.92.31-14.26,2.83-19.02,7.56-4.76,4.73-7.15,11.29-7.16,19.68l53.38-2.09c-.24-3.21-1-6.37-2.27-9.48Z"/>
  <path class="cls-1" d="M509.45,146.69c1.66,4.36,3.81,7.9,6.45,10.61,2.63,2.72,5.61,4.67,8.94,5.86,3.32,1.19,6.71,1.72,10.15,1.59,8.38-.33,14.69-3.59,18.93-9.79,4.24-6.2,6.14-14.87,5.71-26.01-.44-11.13-3.01-19.63-7.72-25.48-4.71-5.85-11.26-8.61-19.64-8.29-3.44.13-6.78.93-10,2.37-3.22,1.45-6.04,3.63-8.45,6.54-2.42,2.91-4.28,6.61-5.6,11.08-1.32,4.48-1.86,9.76-1.62,15.84.24,6.09,1.19,11.31,2.85,15.67Z"/>
  <path class="cls-1" d="M1091.9,341.75c-2.81-2.28-5.88-3.76-9.19-4.44-3.31-.68-6.67-.75-10.07-.19-8.28,1.35-14.03,5.17-17.25,11.46-3.22,6.29-3.98,14.65-2.28,25.08,1.72,10.55,5.11,18.29,10.16,23.22,5.05,4.94,11.72,6.73,20,5.38,3.4-.56,6.56-1.68,9.49-3.38,2.92-1.7,5.36-4.08,7.3-7.13,1.95-3.05,3.29-6.76,4.03-11.13.74-4.37.64-9.45-.3-15.23-.94-5.78-2.46-10.6-4.54-14.45-2.08-3.85-4.53-6.91-7.35-9.19Z"/>
  <path class="cls-1" d="M757.24,312.78l6.51-85.06-137.15-10.5,579.41-22.67-7.61-194.56L268.28,36.39l6.02,153.88L14.12,170.35,0,354.91l343.59,26.3-57.82,9.56,30.21,182.62,356.43-58.96-2.04-12.49,6.29-1.03c2.49-.41,4.71-.89,6.66-1.44,1.95-.55,3.58-1.43,4.9-2.63,1.31-1.21,2.41-2.9,3.28-5.07.87-2.18,1.51-5.17,1.94-8.96l.38-1.98-47.92-86.12,17.18-2.8,34.81,66.78,11.11-74.27,16.16-2.64-17.09,100.74c-.89,5.27-1.86,9.67-2.91,13.22-1.05,3.55-2.55,6.5-4.49,8.85-1.95,2.35-4.52,4.23-7.73,5.62-1.27.55-2.7,1.06-4.26,1.53l382.77-63.32c-2.43-.61-4.73-1.44-6.89-2.51-7.35-3.63-12.51-9.98-15.5-19.03l16.5-2.69c.79,1.97,1.8,3.75,3.06,5.35,1.25,1.6,2.8,2.92,4.66,3.95,1.85,1.03,4.06,1.72,6.62,2.06,2.56.34,5.65.21,9.28-.38,8.28-1.35,14.14-4.64,17.6-9.85.64-1.04,1.25-2.12,1.82-3.27.57-1.14,1.01-2.52,1.33-4.15.31-1.62.44-3.56.36-5.82-.08-2.26-.37-4.92-.87-7.98l-1.41-8.67c-2.04,5.34-5.12,9.8-9.25,13.38-4.13,3.59-9.88,5.98-17.25,7.18-5.44.89-10.62.71-15.54-.52-4.92-1.23-9.37-3.54-13.35-6.9-3.98-3.37-7.4-7.72-10.25-13.08-2.85-5.35-4.88-11.71-6.08-19.09-1.18-7.25-1.28-13.9-.29-19.95.99-6.04,2.85-11.26,5.56-15.66,2.71-4.4,6.2-8,10.46-10.79,4.26-2.79,9.11-4.63,14.55-5.52,7.37-1.2,13.59-.73,18.65,1.41,5.06,2.14,9.41,5.42,13.04,9.83l-2.36-14.46,15.48-2.53,12.93,79.26c.76,4.65,1.22,8.71,1.38,12.17.16,3.47.04,6.51-.34,9.13-.39,2.62-.95,4.9-1.68,6.82-.73,1.92-1.66,3.73-2.78,5.43-2.48,4.09-6.05,7.56-10.68,10.44l49.68-8.22-30.21-182.62-372.42,61.6ZM1085.65,88.27c2.01-6,4.91-11.17,8.71-15.52,3.8-4.34,8.35-7.74,13.66-10.19,5.31-2.45,11.18-3.8,17.61-4.05,7.12-.28,13.51.85,19.19,3.39,5.67,2.54,10.44,6.14,14.31,10.82,3.86,4.68,6.75,10.2,8.67,16.56,1.91,6.37,2.79,13.23,2.62,20.59l-70.08,2.74c.18,4.59,1.06,8.7,2.64,12.31,1.58,3.62,3.68,6.64,6.31,9.07,2.62,2.43,5.62,4.26,9.01,5.51,3.38,1.25,6.97,1.8,10.76,1.65,7.23-.28,12.69-1.9,16.37-4.87,3.68-2.96,6.4-6.77,8.18-11.44l16.19-.63c-.88,4.06-2.39,7.88-4.55,11.47-2.16,3.59-4.88,6.77-8.16,9.55-3.28,2.78-7.19,5.02-11.72,6.75-4.53,1.73-9.67,2.71-15.41,2.93-7.46.29-14.03-.69-19.69-2.94-5.67-2.25-10.48-5.48-14.43-9.7-3.96-4.21-7-9.21-9.12-14.99-2.12-5.78-3.32-12.11-3.59-19-.29-7.34.57-14.02,2.58-20.02ZM990.46,92.77c1.78-5.93,4.48-11.13,8.1-15.58,3.62-4.45,8.11-7.99,13.47-10.62,5.36-2.62,11.54-4.07,18.54-4.35,5.74-.22,10.88.52,15.44,2.24,4.55,1.72,8.49,4.07,11.83,7.04,3.33,2.97,6.03,6.38,8.07,10.2,2.05,3.83,3.43,7.69,4.16,11.56l-15.84.62c-1.37-5.47-4.15-9.87-8.36-13.21-4.21-3.34-9.48-4.89-15.79-4.64-3.67.14-7.06.96-10.17,2.47-3.1,1.5-5.78,3.71-8.02,6.61-2.24,2.91-3.97,6.51-5.18,10.81-1.21,4.3-1.7,9.38-1.47,15.23.23,5.86,1.12,10.94,2.67,15.24,1.55,4.31,3.58,7.85,6.11,10.63,2.52,2.78,5.39,4.82,8.6,6.13,3.21,1.31,6.6,1.9,10.16,1.76,3.44-.13,6.49-.77,9.15-1.91,2.65-1.14,4.96-2.61,6.9-4.41,1.94-1.8,3.53-3.85,4.76-6.14,1.23-2.29,2.09-4.65,2.57-7.08l16.19-.63c-.63,4.39-2.02,8.59-4.16,12.58-2.14,3.99-4.91,7.55-8.29,10.67-3.39,3.12-7.37,5.63-11.95,7.54-4.58,1.9-9.63,2.96-15.14,3.18-6.78.27-12.85-.7-18.22-2.91-5.38-2.2-9.98-5.36-13.82-9.46-3.84-4.1-6.82-9.07-8.95-14.91-2.12-5.84-3.33-12.31-3.61-19.43-.27-6.89.49-13.3,2.27-19.23ZM908.89,68.54l.55,13.95c2.47-4.46,6.03-8.28,10.67-11.45,4.65-3.17,10.87-4.91,18.68-5.21,5.62-.22,10.39.46,14.31,2.03,3.91,1.57,7.14,3.89,9.67,6.95,2.53,3.06,4.43,6.76,5.69,11.07,1.26,4.32,2,9.12,2.2,14.4l2.29,58.55-15.67.61-2.11-53.9c-.14-3.56-.5-6.94-1.09-10.13-.59-3.19-1.61-6-3.09-8.42-1.47-2.41-3.59-4.29-6.34-5.62-2.75-1.33-6.37-1.91-10.85-1.73-7.58.3-13.45,3.09-17.61,8.36-4.16,5.28-6.05,12.91-5.66,22.9l1.97,50.28-15.67.61-3.62-92.64,15.67-.61ZM792.07,99.76c2.01-6,4.91-11.17,8.71-15.52,3.8-4.34,8.35-7.74,13.66-10.19,5.31-2.45,11.17-3.8,17.6-4.05,7.12-.28,13.51.85,19.19,3.39,5.67,2.54,10.44,6.14,14.31,10.82,3.86,4.68,6.75,10.2,8.67,16.56,1.91,6.37,2.79,13.23,2.62,20.59l-70.08,2.74c.18,4.59,1.06,8.7,2.64,12.31,1.58,3.62,3.68,6.64,6.3,9.07,2.62,2.43,5.63,4.26,9.01,5.51,3.38,1.25,6.97,1.8,10.76,1.65,7.23-.28,12.69-1.9,16.37-4.87,3.68-2.96,6.4-6.77,8.17-11.44l16.19-.63c-.88,4.06-2.39,7.88-4.55,11.47-2.16,3.59-4.88,6.77-8.16,9.55-3.28,2.78-7.19,5.02-11.72,6.75-4.53,1.73-9.67,2.71-15.41,2.93-7.46.29-14.03-.69-19.69-2.94-5.67-2.25-10.48-5.48-14.43-9.7-3.96-4.21-7-9.21-9.12-14.99-2.12-5.78-3.32-12.11-3.59-19-.29-7.34.57-14.02,2.58-20.02ZM772.88,166.65l-15.67.61-3.62-92.64,15.67-.61,3.62,92.64ZM767.99,41.81l.74,18.94-15.67.61-.74-18.94,15.67-.61ZM707.78,76.41l.63,16.19c2.09-5.37,5.34-9.55,9.77-12.54,4.42-2.99,9.67-4.72,15.75-5.19.8-.03,1.55-.06,2.24-.09s1.49,0,2.42.08l.65,16.7c-1.62-.17-3.17-.28-4.67-.34-1.5-.05-2.88-.06-4.14-.01-7.23.28-12.57,2.68-16.02,7.18-3.45,4.51-4.97,11.87-4.57,22.08l1.9,48.56-15.67.61-3.62-92.64,15.33-.6ZM591.3,107.61c2.01-6,4.91-11.17,8.71-15.52,3.8-4.34,8.35-7.74,13.66-10.19,5.31-2.45,11.17-3.8,17.6-4.05,7.12-.28,13.51.85,19.19,3.39,5.67,2.54,10.44,6.14,14.31,10.82,3.86,4.68,6.75,10.2,8.67,16.56,1.91,6.37,2.79,13.23,2.62,20.59l-70.08,2.74c.18,4.59,1.06,8.7,2.64,12.31,1.58,3.62,3.68,6.64,6.3,9.07,2.62,2.43,5.63,4.26,9.01,5.51,3.38,1.25,6.97,1.8,10.76,1.65,7.23-.28,12.69-1.9,16.37-4.87,3.68-2.96,6.4-6.77,8.18-11.44l16.19-.63c-.88,4.06-2.39,7.88-4.55,11.47-2.16,3.59-4.88,6.77-8.16,9.55-3.28,2.78-7.19,5.02-11.72,6.75-4.53,1.73-9.67,2.71-15.41,2.93-7.46.29-14.03-.69-19.69-2.94-5.67-2.25-10.48-5.48-14.43-9.7-3.96-4.21-7-9.21-9.12-14.99-2.12-5.78-3.32-12.11-3.59-19-.29-7.34.57-14.02,2.58-20.02ZM505.46,84.33l.57,14.64c2.67-5.05,6.42-9.13,11.25-12.25,4.82-3.12,10.96-4.83,18.42-5.12,5.51-.22,10.66.68,15.45,2.67,4.79,2,9.05,4.99,12.77,8.99,3.72,3.99,6.7,8.94,8.94,14.83,2.24,5.89,3.51,12.63,3.81,20.2.3,7.69-.44,14.56-2.21,20.61-1.78,6.05-4.36,11.21-7.76,15.48-3.4,4.27-7.41,7.56-12.03,9.87-4.63,2.31-9.69,3.57-15.2,3.79-7.46.29-13.72-.93-18.77-3.66-5.05-2.73-9.11-6.51-12.17-11.34l1.72,44.08-15.67.61-4.8-122.77,15.67-.61ZM505.06,353.19c-4.81,2.6-10.95,3.68-18.4,3.24-5.5-.32-10.52-1.62-15.05-3.9-4.53-2.28-8.37-5.49-11.52-9.65-3.15-4.15-5.54-9.15-7.15-15-1.62-5.85-2.21-12.5-1.77-19.95.43-7.34,1.78-13.85,4.07-19.53,2.29-5.68,5.24-10.37,8.85-14.07,3.61-3.7,7.8-6.45,12.56-8.24,4.77-1.79,9.9-2.53,15.4-2.21,7.45.43,13.42,2.25,17.89,5.45,4.47,3.19,8,7.34,10.58,12.44l.85-14.62,15.66.91-4.67,80.17c-.27,4.7-.71,8.76-1.31,12.18-.6,3.42-1.38,6.36-2.33,8.84-.95,2.47-1.99,4.57-3.13,6.29-1.14,1.72-2.44,3.28-3.9,4.69-3.56,3.7-8.17,6.46-13.86,8.25-5.69,1.8-11.97,2.5-18.85,2.09-10.55-.62-19.02-3.5-25.39-8.64-6.38-5.15-10.03-12.47-10.98-21.96l16.69.97c.34,2.09.94,4.05,1.81,5.89.87,1.83,2.1,3.46,3.69,4.88,1.58,1.41,3.59,2.57,6.01,3.46,2.42.89,5.47,1.44,9.14,1.65,8.37.49,14.81-1.44,19.32-5.78.85-.87,1.69-1.8,2.49-2.79.8-.99,1.54-2.24,2.2-3.76.66-1.51,1.2-3.38,1.62-5.6.42-2.22.72-4.88.9-7.98l.51-8.77c-3.16,4.76-7.14,8.45-11.95,11.04ZM410.06,88.06l23.8,30.97,21.48-32.75,17.56-.69-29.78,45.49,36.5,47.03-18.77.73-26.52-34.32-23.59,36.28-17.91.7,32.23-49.03-33.79-43.69,18.77-.73ZM406.21,258.87c5.62.33,10.3,1.46,14.04,3.41,3.74,1.94,6.73,4.56,8.95,7.86,2.23,3.3,3.75,7.15,4.59,11.57.83,4.42,1.1,9.27.79,14.55l-3.41,58.49-15.65-.91,3.14-53.85c.21-3.55.17-6.95-.1-10.19-.27-3.24-1.02-6.13-2.26-8.67s-3.16-4.61-5.77-6.21c-2.61-1.59-6.15-2.52-10.63-2.78-7.57-.44-13.68,1.76-18.34,6.61-4.66,4.85-7.27,12.26-7.86,22.24l-2.93,50.23-15.65-.91,5.4-92.55,15.65.91-.81,13.93c2.89-4.2,6.8-7.66,11.74-10.36,4.93-2.7,11.3-3.83,19.1-3.37ZM54.27,291.17c1.59,6.31,4.03,11.71,7.34,16.22,3.3,4.51,7.3,8.02,11.99,10.54,4.69,2.52,9.96,3.95,15.8,4.29,9.98.58,18.12-1.47,24.44-6.17,6.32-4.7,10.68-11,13.1-18.92l17.03.99c-1.78,6.8-4.45,12.72-8.03,17.74-3.57,5.03-7.81,9.18-12.72,12.46-4.91,3.28-10.4,5.64-16.47,7.07-6.07,1.43-12.49,1.95-19.25,1.55-8.95-.52-16.82-2.59-23.63-6.21-6.81-3.62-12.48-8.44-17.02-14.46-4.54-6.02-7.84-13.06-9.9-21.12-2.06-8.06-2.82-16.85-2.26-26.37.56-9.63,2.45-18.33,5.66-26.08,3.21-7.75,7.51-14.29,12.88-19.62,5.37-5.32,11.7-9.33,19-12.01,7.29-2.68,15.35-3.76,24.18-3.25,6.42.37,12.44,1.67,18.07,3.9,5.62,2.23,10.6,5.25,14.92,9.07,4.32,3.82,7.91,8.43,10.76,13.83,2.85,5.4,4.77,11.47,5.76,18.2l-17.03-.99c-.69-3.95-1.94-7.65-3.75-11.09-1.81-3.44-4.14-6.46-6.98-9.04-2.84-2.58-6.23-4.68-10.16-6.29-3.94-1.61-8.37-2.56-13.3-2.85-5.5-.32-10.7.44-15.58,2.28-4.88,1.85-9.23,4.76-13.02,8.74-3.8,3.98-6.88,9.01-9.25,15.08-2.37,6.08-3.79,13.13-4.25,21.16-.46,7.91.1,15.02,1.69,21.33ZM238.99,284.85l-3.41,58.49-15.65-.91,3.14-53.85c.21-3.55.17-6.95-.1-10.19-.27-3.24-1.02-6.13-2.26-8.67-1.23-2.55-3.16-4.61-5.77-6.21-2.61-1.59-6.15-2.52-10.63-2.78-7.57-.44-13.68,1.76-18.34,6.61-4.66,4.85-7.27,12.26-7.86,22.24l-2.93,50.23-15.65-.91,7.27-124.72,15.65.91-2.69,46.1c2.89-4.2,6.8-7.66,11.74-10.36,4.93-2.7,11.3-3.83,19.1-3.38,5.62.33,10.3,1.46,14.04,3.41,3.74,1.94,6.73,4.56,8.95,7.86,2.23,3.3,3.75,7.15,4.59,11.57.83,4.42,1.1,9.27.79,14.55ZM335.22,292.36l-1.44,21.67c-.57,7.79-.82,14.48-.74,20.07.08,5.59.45,10.59,1.11,15l-15.83-.92c-.13-1.73-.24-3.75-.34-6.06-.1-2.31-.12-4.84-.07-7.6-3.15,4.65-7.3,8.26-12.46,10.84-5.16,2.58-11.86,3.62-20.12,3.14-4.36-.25-8.42-1.1-12.19-2.52-3.77-1.43-7.06-3.35-9.85-5.75-2.79-2.41-4.93-5.29-6.4-8.66-1.47-3.37-2.09-7.11-1.85-11.24.32-5.5,2.08-10.03,5.28-13.59,3.2-3.55,7.59-6.4,13.19-8.55,5.59-2.15,12.27-3.74,20.04-4.79,7.77-1.04,16.44-1.8,26.03-2.28l.15-2.58c.25-4.36-.08-8-1-10.93-.92-2.93-2.31-5.28-4.16-7.06-1.85-1.78-4.08-3.09-6.68-3.93-2.6-.84-5.39-1.35-8.37-1.52-7.23-.42-12.77.89-16.63,3.95-3.86,3.05-6.13,7.44-6.81,13.15l-16.17-.94c.63-4.91,2.21-9.25,4.73-13.02,2.52-3.76,5.64-6.86,9.34-9.29,3.71-2.43,7.84-4.2,12.39-5.32,4.55-1.11,9.24-1.53,14.05-1.25,12.84.75,22.07,4.28,27.69,10.59,5.61,6.31,7.98,16.12,7.09,29.41ZM300.73,185.12l-4.88-124.84,84.72-3.31.59,15.15-67.15,2.63,1.48,37.88,63.19-2.47.59,15.15-63.19,2.47,1.62,41.5,67.15-2.63.59,15.15-84.72,3.31ZM334.28,539.48l-20.12-123.3,83.68-13.65,2.44,14.97-66.33,10.82,6.1,37.42,62.42-10.18,2.44,14.97-62.42,10.18,6.69,40.99,66.33-10.82,2.44,14.97-83.68,13.65ZM472.21,516.98l-13.78,2.25-49.45-85.87,17.18-2.8,36.26,66.02,13.4-74.12,15.99-2.61-19.6,97.13ZM585,482.77c-1.7,3.83-4.02,7.32-6.93,10.47-2.92,3.16-6.52,5.87-10.81,8.14-4.29,2.27-9.26,3.87-14.93,4.79-7.37,1.2-14,1.03-19.9-.51-5.9-1.54-11.07-4.16-15.51-7.86-4.45-3.7-8.07-8.29-10.89-13.76-2.81-5.48-4.78-11.62-5.89-18.42-1.18-7.25-1.15-13.98.11-20.19,1.26-6.2,3.5-11.69,6.74-16.46,3.24-4.78,7.34-8.71,12.31-11.79,4.97-3.08,10.62-5.14,16.98-6.17,7.03-1.15,13.51-.81,19.46,1.02,5.94,1.83,11.12,4.82,15.52,8.99,4.4,4.17,7.95,9.3,10.63,15.38,2.68,6.08,4.38,12.79,5.12,20.12l-69.22,11.29c.74,4.54,2.11,8.5,4.12,11.9,2.01,3.4,4.46,6.14,7.37,8.23,2.9,2.09,6.1,3.54,9.62,4.37,3.51.82,7.14.93,10.88.32,7.14-1.17,12.36-3.44,15.65-6.83,3.29-3.39,5.52-7.51,6.71-12.36l15.99-2.61c-.37,4.14-1.41,8.12-3.12,11.95ZM635.34,412.49c-1.49.13-2.86.29-4.11.5-7.14,1.17-12.15,4.19-15.02,9.08-2.87,4.89-3.48,12.38-1.83,22.47l7.83,47.96-15.48,2.53-14.93-91.5,15.14-2.47,2.61,15.99c1.42-5.58,4.14-10.13,8.16-13.64,4.03-3.51,9.02-5.86,15-7.07.79-.13,1.53-.25,2.21-.36.68-.11,1.48-.18,2.41-.22l2.69,16.5c-1.63.03-3.18.11-4.68.24ZM639.49,325.64l-70.02-4.08c-.27,4.59.21,8.76,1.43,12.51,1.22,3.75,3.02,6.97,5.39,9.63,2.37,2.67,5.18,4.79,8.43,6.36,3.24,1.57,6.76,2.47,10.54,2.69,7.23.42,12.81-.66,16.76-3.25,3.95-2.59,7.03-6.12,9.25-10.6l16.17.94c-1.27,3.96-3.15,7.61-5.65,10.98-2.5,3.37-5.52,6.27-9.05,8.71-3.54,2.44-7.65,4.3-12.32,5.58-4.68,1.28-9.88,1.75-15.62,1.42-7.46-.43-13.89-2.05-19.31-4.84-5.42-2.79-9.89-6.47-13.42-11.05-3.53-4.58-6.07-9.85-7.62-15.81-1.55-5.96-2.13-12.38-1.73-19.26.43-7.34,1.93-13.9,4.51-19.67,2.58-5.77,5.97-10.64,10.17-14.6,4.2-3.95,9.06-6.89,14.58-8.82,5.52-1.92,11.49-2.7,17.92-2.32,7.11.42,13.37,2.16,18.77,5.24,5.4,3.08,9.8,7.13,13.19,12.16,3.39,5.03,5.73,10.81,7.02,17.33,1.29,6.52,1.49,13.44.6,20.75ZM673.85,307.79c2.41,1.98,6,3.63,10.76,4.94l12.92,3.34c4.3,1.17,8.4,2.51,12.28,4,3.88,1.49,7.23,3.38,10.03,5.68,2.8,2.29,4.97,5.04,6.51,8.23,1.54,3.2,2.18,7.03,1.92,11.5-.27,4.59-1.48,8.6-3.64,12.04-2.16,3.44-5.03,6.3-8.61,8.56-3.58,2.27-7.74,3.89-12.45,4.88-4.72.99-9.83,1.33-15.33,1-6.19-.36-11.67-1.6-16.44-3.72-4.77-2.12-8.76-4.77-11.97-7.95-3.21-3.18-5.65-6.77-7.31-10.78-1.67-4.01-2.61-8.03-2.83-12.08l16.51.96c.91,6.04,3.19,10.83,6.84,14.38,3.65,3.55,9.08,5.54,16.31,5.96,6.31.37,11.65-.53,16.04-2.69,4.38-2.16,6.7-5.42,6.96-9.78.13-2.29-.27-4.33-1.2-6.11s-2.25-3.32-3.96-4.63c-1.71-1.31-3.72-2.4-6.02-3.29-2.31-.88-4.76-1.69-7.37-2.41l-13.6-3.56c-3.29-.88-6.5-1.99-9.65-3.32-3.14-1.33-5.95-3.05-8.42-5.15-2.47-2.1-4.39-4.66-5.77-7.67-1.38-3.01-1.94-6.7-1.69-11.06.24-4.13,1.43-7.71,3.56-10.75,2.13-3.04,4.96-5.58,8.47-7.62,3.51-2.04,7.6-3.5,12.25-4.38,4.65-.88,9.62-1.17,14.89-.86,10.43.61,18.71,3.68,24.84,9.22,6.12,5.54,9.67,12.76,10.65,21.68l-16.34-.95c-.94-5.58-3.32-9.66-7.14-12.24-3.82-2.58-8.65-4.04-14.5-4.38-2.41-.14-4.83-.08-7.26.18-2.43.26-4.62.83-6.57,1.69-1.95.87-3.57,2.01-4.86,3.43-1.29,1.42-2,3.16-2.12,5.23-.21,3.67.89,6.5,3.3,8.48ZM784.29,466.06c-4.42.72-8.07,1-10.95.83-2.88-.17-5.25-.95-7.1-2.33-1.86-1.38-3.34-3.53-4.46-6.43-1.11-2.9-2.06-6.73-2.84-11.5l-9.16-56.12-14.46,2.36-2.03-12.42,14.46-2.36-3.75-22.96,15.48-2.53,3.75,22.96,17.35-2.83,2.03,12.42-17.35,2.83,8.85,54.25c.39,2.38.79,4.32,1.21,5.83.42,1.5,1.01,2.66,1.79,3.46.77.81,1.81,1.28,3.11,1.41,1.3.14,3.09.02,5.36-.35l7.82-1.28,2.11,12.93-11.22,1.83ZM873.23,451.54l-8.69-53.23c-.57-3.51-1.35-6.82-2.32-9.92-.97-3.1-2.34-5.76-4.1-7.98-1.76-2.21-4.09-3.81-6.98-4.8-2.9-.98-6.55-1.11-10.98-.39-7.48,1.22-12.97,4.71-16.45,10.45-3.49,5.75-4.42,13.56-2.81,23.42l8.1,49.66-15.48,2.53-20.12-123.3,15.48-2.53,7.44,45.58c1.9-4.73,4.97-8.96,9.2-12.68,4.22-3.71,10.19-6.2,17.9-7.46,5.55-.91,10.37-.82,14.45.26,4.08,1.08,7.56,2.99,10.45,5.72,2.89,2.73,5.22,6.16,7,10.29,1.78,4.13,3.1,8.81,3.95,14.02l9.43,57.83-15.48,2.53ZM891.72,321.94l15.48-2.53,3.05,18.71-15.48,2.53-3.05-18.71ZM911.84,445.25l-14.93-91.5,15.48-2.53,14.93,91.5-15.48,2.53ZM1011.5,428.99l-8.69-53.23c-.57-3.51-1.35-6.82-2.32-9.92-.97-3.1-2.34-5.76-4.09-7.98-1.76-2.21-4.09-3.81-6.98-4.8-2.9-.98-6.55-1.11-10.98-.39-7.48,1.22-12.97,4.71-16.45,10.45-3.49,5.75-4.42,13.56-2.81,23.42l8.1,49.66-15.48,2.53-14.93-91.5,15.48-2.53,2.25,13.78c1.9-4.73,4.97-8.96,9.19-12.68,4.22-3.71,10.19-6.2,17.9-7.46,5.55-.91,10.37-.82,14.45.26,4.07,1.08,7.56,2.99,10.45,5.72,2.89,2.73,5.22,6.16,7,10.29,1.78,4.13,3.1,8.81,3.95,14.02l9.43,57.83-15.48,2.53Z"/>
</svg>