<?xml version="1.0" encoding="UTF-8"?>
<svg id="Layer_2" data-name="Layer 2" xmlns="http://www.w3.org/2000/svg" viewBox="0 0 666.3 81.83">
  <defs>
    <style>
      .cls-1 {
        fill: #fff;
      }
    </style>
  </defs>
  <g id="Layer_1-2" data-name="Layer 1">
    <polygon class="cls-1" points="310.66 56.99 310.66 0 328.22 0 328.22 81.83 312.67 81.83 252.13 25.21 252.13 81.83 234.57 81.83 234.57 0 250.11 0 310.66 56.99"/>
    <path class="cls-1" d="M585.63,0c10.14,13.09,29.99,40.55,29.99,40.55L645.26,0h21.04l-42.07,54.98v26.85h-17.56v-26.48L564.23.01h21.4Z"/>
    <polygon class="cls-1" points="558.84 0 558.84 14.98 522.98 14.98 522.98 81.83 505.42 81.83 505.42 14.98 469.57 14.98 469.57 0 558.84 0"/>
    <polygon class="cls-1" points="428.99 0 428.99 14.98 393.14 14.98 393.14 81.83 375.58 81.83 375.58 14.98 339.73 14.98 339.73 0 428.99 0"/>
    <rect class="cls-1" width="17.93" height="81.82"/>
    <polygon class="cls-1" points="218.85 14.98 218.85 0 151.7 0 136.72 0 136.72 81.83 151.7 81.83 218.85 81.83 218.85 66.85 151.7 66.85 151.7 48.4 218.85 48.4 218.85 33.43 151.7 33.43 151.7 14.98 218.85 14.98"/>
    <path class="cls-1" d="M112.86,10.69C105.4,3.6,94.52,0,80.54,0h-43.17v81.82h43.17c28.02,0,43.46-14.55,43.46-40.97,0-12.99-3.75-23.14-11.14-30.16h0ZM54.8,15.05h24.61c8.85,0,15.58,2.08,20,6.19,4.57,4.24,6.88,10.84,6.88,19.62,0,17.44-8.8,25.92-26.89,25.92h-24.61V15.04h0Z"/>
    <rect class="cls-1" x="440.5" width="17.56" height="81.82"/>
  </g>
</svg>