<?xml version="1.0" encoding="UTF-8"?>
<svg id="Layer_2" data-name="Layer 2" xmlns="http://www.w3.org/2000/svg" viewBox="0 0 1332.6 81.83">
  <defs>
    <style>
      .cls-1 {
        fill: #fff;
      }
    </style>
  </defs>
  <g id="Layer_2-2" data-name="Layer 2">
    <g id="Layer_1-2" data-name="Layer 1-2">
      <g>
        <polygon class="cls-1" points="323.44 0 0 0 0 14.97 323.44 14.97 646.85 14.97 646.85 0 323.44 0"/>
        <polygon class="cls-1" points="0 33.42 0 48.4 323.44 48.4 646.85 48.4 646.85 33.42 323.44 33.42 0 33.42"/>
        <polygon class="cls-1" points="0 66.84 0 81.82 323.44 81.82 646.85 81.82 646.85 66.84 323.44 66.84 0 66.84"/>
      </g>
      <g>
        <polygon class="cls-1" points="976.96 56.99 976.96 0 994.52 0 994.52 81.83 978.97 81.83 918.43 25.21 918.43 81.83 900.87 81.83 900.87 0 916.41 0 976.96 56.99"/>
        <path class="cls-1" d="M1251.93,0c10.14,13.09,29.99,40.55,29.99,40.55l29.64-40.55h21.04l-42.07,54.98v26.85h-17.56v-26.48L1230.53.02h21.4v-.02Z"/>
        <polygon class="cls-1" points="1225.14 0 1225.14 14.99 1189.28 14.99 1189.28 81.83 1171.72 81.83 1171.72 14.99 1135.87 14.99 1135.87 0 1225.14 0"/>
        <polygon class="cls-1" points="1095.29 0 1095.29 14.99 1059.44 14.98 1059.44 81.83 1041.88 81.83 1041.88 14.98 1006.03 14.98 1006.03 0 1095.29 0"/>
        <rect class="cls-1" x="666.3" width="17.93" height="81.82"/>
        <polygon class="cls-1" points="885.15 14.98 885.15 0 818 0 803.02 0 803.02 81.83 818 81.83 885.15 81.83 885.15 66.86 818 66.85 818 48.41 885.15 48.41 885.15 33.43 818 33.43 818 14.98 885.15 14.98"/>
        <path class="cls-1" d="M779.16,10.7c-7.46-7.09-18.34-10.7-32.32-10.7h-43.17v81.82h43.17c28.02,0,43.46-14.55,43.46-40.97,0-12.99-3.75-23.14-11.14-30.16h0ZM721.1,15.05h24.61c8.85,0,15.58,2.08,20,6.19,4.57,4.24,6.88,10.84,6.88,19.62,0,17.44-8.8,25.92-26.89,25.92h-24.61V15.04h.01Z"/>
        <rect class="cls-1" x="1106.8" width="17.56" height="81.82"/>
      </g>
    </g>
  </g>
</svg>