<?xml version="1.0" encoding="UTF-8"?>
<svg id="Layer_2" data-name="Layer 2" xmlns="http://www.w3.org/2000/svg" viewBox="0 0 1352.05 81.84">
  <defs>
    <style>
      .cls-1 {
        fill: #fff;
      }
    </style>
  </defs>
  <g id="Layer_1-2" data-name="Layer 1">
    <g>
      <polygon class="cls-1" points="333.17 0 0 0 0 14.97 333.17 14.97 666.3 14.97 666.3 0 333.17 0"/>
      <polygon class="cls-1" points="0 33.42 0 48.4 333.17 48.4 666.3 48.4 666.3 33.42 333.17 33.42 0 33.42"/>
      <polygon class="cls-1" points="0 66.84 0 81.82 333.17 81.82 666.3 81.82 666.3 66.84 333.17 66.84 0 66.84"/>
    </g>
    <g>
      <polygon class="cls-1" points="996.41 56.99 996.41 0 1013.97 0 1013.97 81.83 998.42 81.83 937.88 25.21 937.88 81.83 920.32 81.83 920.32 0 935.86 0 996.41 56.99"/>
      <path class="cls-1" d="M1271.38,0c10.14,13.09,29.99,40.55,29.99,40.55L1331.01,0h21.04l-42.07,54.98v26.85h-17.56v-26.48L1249.98.02h21.4Z"/>
      <polygon class="cls-1" points="1244.59 0 1244.59 14.99 1208.73 14.99 1208.73 81.83 1191.17 81.83 1191.17 14.99 1155.32 14.99 1155.32 0 1244.59 0"/>
      <polygon class="cls-1" points="1114.74 0 1114.74 14.99 1078.89 14.98 1078.89 81.83 1061.33 81.83 1061.33 14.98 1025.48 14.98 1025.48 0 1114.74 0"/>
      <rect class="cls-1" x="685.75" y="0" width="17.93" height="81.82"/>
      <polygon class="cls-1" points="904.6 14.98 904.6 0 837.45 0 822.47 0 822.47 81.83 837.45 81.83 904.6 81.83 904.6 66.86 837.45 66.85 837.45 48.41 904.6 48.41 904.6 33.43 837.45 33.43 837.45 14.98 904.6 14.98"/>
      <path class="cls-1" d="M798.61,10.7C791.15,3.61,780.27,0,766.29,0h-43.17v81.82h43.17c28.02,0,43.46-14.55,43.46-40.97,0-12.99-3.75-23.14-11.14-30.16h0ZM740.55,15.05h24.61c8.85,0,15.58,2.08,20,6.19,4.57,4.24,6.88,10.84,6.88,19.62,0,17.44-8.8,25.92-26.89,25.92h-24.61V15.04h0Z"/>
      <rect class="cls-1" x="1126.25" y="0" width="17.56" height="81.82"/>
    </g>
  </g>
</svg>